grf
version=1
nRows=42
nColumns=19
inDegrees=yes
endheader
time	ground_force_1_vx	ground_force_1_vy	ground_force_1_vz	ground_force_1_px	ground_force_1_py	ground_force_1_pz	ground_moment_1_mx	ground_moment_1_my	ground_moment_1_mz	ground_force_2_vx	ground_force_2_vy	ground_force_2_vz	ground_force_2_px	ground_force_2_py	ground_force_2_pz	ground_moment_2_mx	ground_moment_2_my	ground_moment_2_mz
0.000000	-46.954395	1229.794067	-506.216980	0.207191	0.000000	-0.730771	0.000000	17.442760	0.000000	7.943155	1425.537842	511.627747	0.187270	0.000000	-1.582427	0.000000	-2.547354	-0.000000
0.001000	-47.356842	1229.641113	-505.452698	0.206879	0.000000	-0.731003	0.000000	17.633606	0.000000	7.300838	1402.401001	510.783447	0.186696	0.000000	-1.582009	0.000000	-2.710167	-0.000000
0.002000	-45.898140	1233.465576	-505.815094	0.208004	0.000000	-0.731655	0.000000	16.621173	0.000000	8.709017	1412.479980	510.018311	0.188693	0.000000	-1.583371	0.000000	-1.504327	0.000000
0.003000	-44.681667	1237.467651	-506.096954	0.207480	0.000000	-0.730287	0.000000	16.564589	0.000000	8.225590	1419.942627	509.778625	0.187783	0.000000	-1.580423	0.000000	-2.229884	-0.000000
0.004000	-46.264908	1224.214111	-506.661377	0.206702	0.000000	-0.730314	0.000000	17.541408	0.000000	8.144972	1426.009277	508.410095	0.187993	0.000000	-1.581374	0.000000	-2.003739	-0.000000
0.005000	-46.952110	1227.560913	-505.615662	0.207173	0.000000	-0.729932	0.000000	17.518862	0.000000	7.823747	1428.388306	507.042847	0.187963	0.000000	-1.580315	0.000000	-1.949811	-0.000000
0.006000	-45.781971	1234.918823	-505.572937	0.207423	0.000000	-0.730907	0.000000	17.128233	0.000000	7.863778	1417.391846	506.640076	0.188100	0.000000	-1.580818	0.000000	-1.835636	-0.000000
0.007000	-46.750889	1218.878052	-504.526978	0.207866	0.000000	-0.730801	0.000000	17.094053	0.000000	9.234681	1420.415405	505.595184	0.187512	0.000000	-1.580029	0.000000	-1.779548	-0.000000
0.008000	-45.944092	1228.190308	-504.243256	0.207428	0.000000	-0.730447	-0.000000	17.188681	0.000000	7.339768	1417.384033	505.957581	0.187111	0.000000	-1.579808	0.000000	-2.573189	-0.000000
0.009000	-46.351482	1223.237549	-505.735474	0.207207	0.000000	-0.729030	0.000000	17.635068	0.000000	8.385444	1421.688477	504.669159	0.187252	0.000000	-1.579782	0.000000	-2.341688	-0.000000
0.010000	-45.420528	1221.638672	-504.325012	0.206908	0.000000	-0.729773	0.000000	17.518358	0.000000	7.660719	1418.493042	503.664551	0.186903	0.000000	-1.579187	0.000000	-2.663940	-0.000000
0.011000	-44.334301	1212.185181	-505.049377	0.207688	0.000000	-0.727553	0.000000	17.216096	0.000000	9.468532	1421.673340	503.021240	0.186698	0.000000	-1.579302	0.000000	-3.005734	-0.000000
0.012000	-42.965981	1220.663452	-503.922424	0.207577	0.000000	-0.729659	0.000000	17.238677	0.000000	8.103423	1414.208984	502.135803	0.187215	0.000000	-1.580205	0.000000	-2.386420	-0.000000
0.013000	-45.706806	1222.913574	-503.360535	0.206984	0.000000	-0.730458	0.000000	17.743990	0.000000	8.223796	1422.945679	501.413757	0.186426	0.000000	-1.579349	0.000000	-2.976976	-0.000000
0.014000	-47.612762	1216.817505	-502.514740	0.207577	0.000000	-0.729739	0.000000	18.088317	0.000000	8.948383	1424.546875	501.653442	0.186654	0.000000	-1.578691	0.000000	-2.651557	-0.000000
0.015000	-42.825089	1230.565430	-501.990234	0.208050	0.000000	-0.730496	0.000000	16.177414	0.000000	8.263002	1417.202881	501.251038	0.186237	0.000000	-1.579100	0.000000	-3.016066	-0.000000
0.016000	-42.726032	1221.623169	-502.268372	0.207612	0.000000	-0.730792	0.000000	17.150286	0.000000	9.310058	1420.874878	500.647766	0.186241	0.000000	-1.578990	0.000000	-2.843189	-0.000000
0.017000	-43.527885	1205.430176	-501.753479	0.208246	0.000000	-0.729853	0.000000	17.100928	0.000000	8.666225	1421.988892	499.320496	0.186217	0.000000	-1.578383	0.000000	-2.855957	-0.000000
0.018000	-45.061752	1218.096436	-501.144684	0.207292	0.000000	-0.731305	-0.000000	17.509686	0.000000	9.109617	1421.334839	499.039673	0.185848	0.000000	-1.579947	0.000000	-2.970035	-0.000000
0.019000	-43.648239	1213.458374	-499.493469	0.207424	0.000000	-0.730597	0.000000	17.305303	0.000000	9.631974	1425.014893	497.591797	0.185782	0.000000	-1.577983	0.000000	-3.038632	-0.000000
0.020000	-45.542404	1208.981445	-498.608643	0.207091	0.000000	-0.729331	0.000000	17.686966	0.000000	10.999014	1432.807617	497.430542	0.185867	0.000000	-1.576674	0.000000	-3.018855	-0.000000
0.021000	-43.204784	1208.984253	-496.309387	0.207025	0.000000	-0.729452	0.000000	17.475021	0.000000	10.556034	1415.763794	496.384094	0.185207	0.000000	-1.576646	0.000000	-3.319934	-0.000000
0.022000	-41.912769	1209.287964	-496.474548	0.207616	0.000000	-0.730884	0.000000	17.118434	0.000000	10.154605	1421.342285	495.942261	0.185615	0.000000	-1.577673	0.000000	-3.054332	-0.000000
0.023000	-42.399132	1198.737671	-496.473816	0.207024	0.000000	-0.728685	-0.000000	17.617311	0.000000	11.683568	1427.234863	494.454346	0.185660	0.000000	-1.576882	0.000000	-2.942312	-0.000000
0.024000	-41.551708	1198.083984	-495.023682	0.207287	0.000000	-0.729059	-0.000000	17.391035	0.000000	10.716993	1421.182007	495.179199	0.185350	0.000000	-1.577234	0.000000	-3.350923	-0.000000
0.025000	-41.835323	1205.794189	-492.923157	0.206431	0.000000	-0.729927	0.000000	17.628648	0.000000	12.004658	1407.304565	492.685059	0.184176	0.000000	-1.575686	0.000000	-3.750103	-0.000000
0.026000	-41.757118	1198.713867	-495.065460	0.207916	0.000000	-0.729428	0.000000	17.303712	0.000000	12.045794	1421.019775	493.006317	0.185165	0.000000	-1.576259	0.000000	-3.115069	-0.000000
0.027000	-40.867172	1201.289307	-493.574890	0.207423	0.000000	-0.730095	0.000000	17.339967	0.000000	11.963936	1416.550293	491.718994	0.185169	0.000000	-1.576661	0.000000	-3.206258	-0.000000
0.028000	-41.277988	1196.466797	-493.091064	0.208048	0.000000	-0.729901	0.000000	17.377019	0.000000	12.205510	1413.200195	491.074951	0.184479	0.000000	-1.576750	0.000000	-3.446893	-0.000000
0.029000	-40.103279	1189.243530	-491.721680	0.208487	0.000000	-0.729906	0.000000	16.868035	0.000000	13.977568	1414.156982	490.873169	0.184820	0.000000	-1.576403	0.000000	-2.939963	-0.000000
0.030000	-39.780182	1186.069214	-492.124756	0.208133	0.000000	-0.728005	0.000000	17.078684	0.000000	13.412145	1420.376343	489.103485	0.184504	0.000000	-1.576373	0.000000	-3.312362	-0.000000
0.031000	-39.297245	1194.724487	-490.996155	0.207256	0.000000	-0.730958	0.000000	17.376577	0.000000	13.934914	1425.634644	489.385345	0.183680	0.000000	-1.577029	0.000000	-3.755561	-0.000000
0.032000	-39.094501	1182.682495	-489.342834	0.208463	0.000000	-0.729215	0.000000	16.730495	0.000000	12.161754	1409.689453	487.937897	0.184385	0.000000	-1.576003	0.000000	-3.826977	-0.000000
0.033000	-37.717052	1188.474976	-489.827820	0.207699	0.000000	-0.730375	0.000000	16.747060	0.000000	14.255450	1411.604004	488.859680	0.184423	0.000000	-1.575896	0.000000	-3.276810	-0.000000
0.034000	-38.490829	1187.988770	-489.709198	0.207752	0.000000	-0.729782	0.000000	17.218750	0.000000	14.699258	1407.295898	487.293976	0.184077	0.000000	-1.576189	0.000000	-3.490945	-0.000000
0.035000	-38.209118	1179.662476	-487.935150	0.207626	0.000000	-0.729671	0.000000	17.232803	0.000000	15.019794	1410.637451	486.207214	0.184087	0.000000	-1.574986	0.000000	-3.538239	-0.000000
0.036000	-38.610802	1181.576904	-487.775421	0.208084	0.000000	-0.728673	0.000000	17.070890	0.000000	17.070009	1414.469238	486.127502	0.184308	0.000000	-1.574568	0.000000	-3.624047	-0.000000
0.037000	-38.773304	1168.492432	-486.807251	0.206133	0.000000	-0.727802	0.000000	18.067477	0.000000	15.703798	1406.009033	485.483093	0.183962	0.000000	-1.574579	0.000000	-3.534491	-0.000000
0.038000	-38.048138	1172.889038	-486.645660	0.209055	0.000000	-0.729346	0.000000	16.541088	0.000000	18.202650	1404.891235	485.121216	0.183422	0.000000	-1.574477	0.000000	-3.193397	-0.000000
0.039000	-38.130905	1173.569214	-485.922211	0.208096	0.000000	-0.728602	0.000000	17.206479	0.000000	17.111837	1408.873047	484.275940	0.183092	0.000000	-1.574873	0.000000	-3.826587	-0.000000
0.040000	-35.736691	1180.635498	-484.631531	0.207656	0.000000	-0.732833	0.000000	16.386100	0.000000	16.990774	1401.700317	485.283203	0.183206	0.000000	-1.574277	0.000000	-4.024046	-0.000000
0.041000	-38.007511	1177.256592	-485.357300	0.207928	0.000000	-0.729313	0.000000	17.114039	0.000000	18.480394	1407.276611	483.149414	0.182821	0.000000	-1.574748	0.000000	-3.768784	-0.000000
